<svg width="26" height="24" viewBox="0 0 26 24" fill="none" xmlns="http://www.w3.org/2000/svg">
<path d="M13 0C11.385 0 9.78579 0.318095 8.29374 0.936124C6.80168 1.55415 5.44597 2.46001 4.304 3.60198C1.9977 5.90829 0.702026 9.03631 0.702026 12.2979C0.702026 17.7336 4.23153 22.3453 9.11381 23.981C9.7287 24.0793 9.92547 23.6981 9.92547 23.3661V21.2877C6.51894 22.0256 5.79337 19.6398 5.79337 19.6398C5.22766 18.2132 4.4283 17.832 4.4283 17.832C3.30919 17.0695 4.51438 17.0941 4.51438 17.0941C5.74417 17.1802 6.39597 18.3608 6.39597 18.3608C7.46588 20.2301 9.27368 19.6767 9.97466 19.3815C10.0853 18.5822 10.4051 18.0411 10.7494 17.7336C8.01929 17.4262 5.15387 16.3685 5.15387 11.683C5.15387 10.318 5.6212 9.22344 6.42056 8.35029C6.29758 8.04284 5.86715 6.76386 6.54354 5.10364C6.54354 5.10364 7.57657 4.77159 9.92547 6.35803C10.897 6.08747 11.9546 5.9522 13 5.9522C14.0453 5.9522 15.1029 6.08747 16.0744 6.35803C18.4233 4.77159 19.4564 5.10364 19.4564 5.10364C20.1327 6.76386 19.7023 8.04284 19.5793 8.35029C20.3787 9.22344 20.846 10.318 20.846 11.683C20.846 16.3808 17.9683 17.4139 15.2259 17.7213C15.6686 18.1025 16.0744 18.8527 16.0744 19.9964V23.3661C16.0744 23.6981 16.2712 24.0916 16.8984 23.981C21.7807 22.333 25.2979 17.7336 25.2979 12.2979C25.2979 10.6829 24.9798 9.08376 24.3618 7.59171C23.7437 6.09966 22.8379 4.74395 21.6959 3.60198C20.5539 2.46001 19.1982 1.55415 17.7062 0.936124C16.2141 0.318095 14.6149 0 13 0Z" fill="#FFE8CE"/>
</svg>
