<svg width="17" height="19" viewBox="0 0 17 19" fill="none" xmlns="http://www.w3.org/2000/svg">
<path d="M2.125 18.5938C1.54062 18.5938 1.04054 18.3859 0.62475 17.9701C0.20825 17.5536 0 17.0531 0 16.4688V6.90625C0 6.56979 0.0754373 6.25104 0.226312 5.95C0.376479 5.64896 0.584375 5.40104 0.85 5.20625L7.225 0.425C7.41979 0.283333 7.62344 0.177083 7.83594 0.10625C8.04844 0.0354166 8.26979 0 8.5 0C8.73021 0 8.95156 0.0354166 9.16406 0.10625C9.37656 0.177083 9.58021 0.283333 9.775 0.425L16.15 5.20625C16.4156 5.40104 16.6239 5.64896 16.7747 5.95C16.9249 6.25104 17 6.56979 17 6.90625V16.4688C17 17.0531 16.7921 17.5536 16.3763 17.9701C15.9598 18.3859 15.4594 18.5938 14.875 18.5938H10.625V11.1562H6.375V18.5938H2.125Z" fill="#242423"/>
</svg>
