<svg width="25" height="24" viewBox="0 0 25 24" fill="none" xmlns="http://www.w3.org/2000/svg">
<path d="M20.747 20.4495H17.1909V14.8804C17.1909 13.5525 17.1672 11.8429 15.3414 11.8429C13.4893 11.8429 13.2059 13.2899 13.2059 14.7838V20.4491H9.64998V8.99697H13.0637V10.562H13.1115C13.4531 9.97787 13.9468 9.49732 14.54 9.17154C15.1331 8.84577 15.8035 8.68697 16.4798 8.71206C20.084 8.71206 20.7485 11.0828 20.7485 14.167L20.747 20.4495ZM5.63748 7.43162C4.49776 7.43181 3.57366 6.508 3.57348 5.36828C3.57329 4.22856 4.49701 3.30447 5.63673 3.30428C6.77644 3.304 7.70054 4.22781 7.70073 5.36753C7.70083 5.91484 7.48351 6.43978 7.09658 6.82687C6.70964 7.21396 6.18479 7.4315 5.63748 7.43162ZM7.41554 20.4496H3.85576V8.99697H7.41545V20.4495L7.41554 20.4496ZM22.5198 0.00174674H2.06888C1.10232 -0.00912826 0.309664 0.765153 0.297852 1.73172V22.2679C0.309289 23.235 1.10185 24.01 2.06879 23.9999H22.5198C23.4888 24.0119 24.2844 23.2368 24.2979 22.2679V1.73012C24.2841 0.761684 23.4883 -0.0125033 22.5198 0.00015299" fill="#FFE8CE"/>
</svg>
