<svg width="24" height="24" viewBox="0 0 24 24" fill="none" xmlns="http://www.w3.org/2000/svg">
<path d="M12 24C10.34 24 8.78 23.6848 7.32 23.0544C5.86 22.424 4.59 21.5692 3.51 20.49C2.43 19.41 1.5752 18.14 0.9456 16.68C0.316 15.22 0.0008 13.66 0 12C0 10.34 0.3152 8.78 0.9456 7.32C1.576 5.86 2.4308 4.59 3.51 3.51C4.59 2.43 5.86 1.5752 7.32 0.9456C8.78 0.316 10.34 0.0008 12 0C13.66 0 15.22 0.3152 16.68 0.9456C18.14 1.576 19.41 2.4308 20.49 3.51C21.57 4.59 22.4252 5.86 23.0556 7.32C23.686 8.78 24.0008 10.34 24 12C24 13.66 23.6848 15.22 23.0544 16.68C22.424 18.14 21.5692 19.41 20.49 20.49C19.41 21.57 18.14 22.4252 16.68 23.0556C15.22 23.686 13.66 24.0008 12 24ZM12.24 13.2L11.16 14.28C10.94 14.5 10.83 14.78 10.83 15.12C10.83 15.46 10.94 15.74 11.16 15.96C11.38 16.18 11.66 16.29 12 16.29C12.34 16.29 12.62 16.18 12.84 15.96L15.96 12.84C16.2 12.6 16.32 12.32 16.32 12C16.32 11.68 16.2 11.4 15.96 11.16L12.84 8.04C12.62 7.82 12.34 7.71 12 7.71C11.66 7.71 11.38 7.82 11.16 8.04C10.94 8.26 10.83 8.54 10.83 8.88C10.83 9.22 10.94 9.5 11.16 9.72L12.24 10.8H8.4C8.06 10.8 7.7748 10.9152 7.5444 11.1456C7.314 11.376 7.1992 11.6608 7.2 12C7.2 12.34 7.3152 12.6252 7.5456 12.8556C7.776 13.086 8.0608 13.2008 8.4 13.2H12.24Z" fill="#FFE8CE"/>
</svg>
