<svg width="24" height="24" viewBox="0 0 24 24" fill="none" xmlns="http://www.w3.org/2000/svg">
<path d="M11.76 13.2H15.6C15.94 13.2 16.2252 13.0848 16.4556 12.8544C16.686 12.624 16.8008 12.3392 16.8 12C16.8 11.66 16.6848 11.3748 16.4544 11.1444C16.224 10.914 15.9392 10.7992 15.6 10.8H11.76L12.84 9.72C13.06 9.5 13.17 9.22 13.17 8.88C13.17 8.54 13.06 8.26 12.84 8.04C12.62 7.82 12.34 7.71 12 7.71C11.66 7.71 11.38 7.82 11.16 8.04L8.04 11.16C7.8 11.4 7.68 11.68 7.68 12C7.68 12.32 7.8 12.6 8.04 12.84L11.16 15.96C11.38 16.18 11.66 16.29 12 16.29C12.34 16.29 12.62 16.18 12.84 15.96C13.06 15.74 13.17 15.46 13.17 15.12C13.17 14.78 13.06 14.5 12.84 14.28L11.76 13.2ZM12 24C10.34 24 8.78 23.6848 7.32 23.0544C5.86 22.424 4.59 21.5692 3.51 20.49C2.43 19.41 1.5752 18.14 0.9456 16.68C0.316 15.22 0.0008 13.66 0 12C0 10.34 0.3152 8.78 0.9456 7.32C1.576 5.86 2.4308 4.59 3.51 3.51C4.59 2.43 5.86 1.5752 7.32 0.9456C8.78 0.316 10.34 0.0008 12 0C13.66 0 15.22 0.3152 16.68 0.9456C18.14 1.576 19.41 2.4308 20.49 3.51C21.57 4.59 22.4252 5.86 23.0556 7.32C23.686 8.78 24.0008 10.34 24 12C24 13.66 23.6848 15.22 23.0544 16.68C22.424 18.14 21.5692 19.41 20.49 20.49C19.41 21.57 18.14 22.4252 16.68 23.0556C15.22 23.686 13.66 24.0008 12 24Z" fill="#FFE8CE"/>
</svg>
